# MagicaVoxel @ Ephtracy

# group
o 

# material
mtllib rail01.mtl
usemtl palette

# normals
vn -1 0 0
vn 1 0 0
vn 0 0 1
vn 0 0 -1
vn 0 -1 0
vn 0 1 0

# texcoords
vt 0.177734 0.5
vt 0.994141 0.5

# verts
v -1.4 0 2
v -1.4 0 1.8
v -1.4 0 1.3
v -1.4 0 1
v -1.4 0 0.5
v -1.4 0 0.2
v -1.4 0 -0.3
v -1.4 0 -0.6
v -1.4 0 -1.1
v -1.4 0 -1.4
v -1.4 0 -1.9
v -1.4 0 -2
v -1.4 0.1 2
v -1.4 0.1 1.8
v -1.4 0.1 1.3
v -1.4 0.1 1
v -1.4 0.1 0.5
v -1.4 0.1 0.2
v -1.4 0.1 -0.3
v -1.4 0.1 -0.6
v -1.4 0.1 -1.1
v -1.4 0.1 -1.4
v -1.4 0.1 -1.9
v -1.4 0.1 -2
v -1.1 0.1 2
v -1.1 0.1 1.8
v -1.1 0.1 1.3
v -1.1 0.1 1
v -1.1 0.1 0.5
v -1.1 0.1 0.2
v -1.1 0.1 -0.3
v -1.1 0.1 -0.6
v -1.1 0.1 -1.1
v -1.1 0.1 -1.4
v -1.1 0.1 -1.9
v -1.1 0.1 -2
v -1.1 0.2 2
v -1.1 0.2 -2
v -1 0.2 2
v -1 0.2 -2
v -1 0.3 2
v -1 0.3 -2
v 0.7 0.1 2
v 0.7 0.1 1.8
v 0.7 0.1 1.3
v 0.7 0.1 1
v 0.7 0.1 0.5
v 0.7 0.1 0.2
v 0.7 0.1 -0.3
v 0.7 0.1 -0.6
v 0.7 0.1 -1.1
v 0.7 0.1 -1.4
v 0.7 0.1 -1.9
v 0.7 0.1 -2
v 0.7 0.2 2
v 0.7 0.2 -2
v 0.8 0.2 2
v 0.8 0.2 -2
v 0.8 0.3 2
v 0.8 0.3 -2
v -0.8 0.2 2
v -0.8 0.2 -2
v -0.8 0.3 2
v -0.8 0.3 -2
v -0.7 0.1 2
v -0.7 0.1 1.8
v -0.7 0.1 1.3
v -0.7 0.1 1
v -0.7 0.1 0.5
v -0.7 0.1 0.2
v -0.7 0.1 -0.3
v -0.7 0.1 -0.6
v -0.7 0.1 -1.1
v -0.7 0.1 -1.4
v -0.7 0.1 -1.9
v -0.7 0.1 -2
v -0.7 0.2 2
v -0.7 0.2 -2
v 1 0.2 2
v 1 0.2 -2
v 1 0.3 2
v 1 0.3 -2
v 1.1 0.1 2
v 1.1 0.1 1.8
v 1.1 0.1 1.3
v 1.1 0.1 1
v 1.1 0.1 0.5
v 1.1 0.1 0.2
v 1.1 0.1 -0.3
v 1.1 0.1 -0.6
v 1.1 0.1 -1.1
v 1.1 0.1 -1.4
v 1.1 0.1 -1.9
v 1.1 0.1 -2
v 1.1 0.2 2
v 1.1 0.2 -2
v 1.4 0 2
v 1.4 0 1.8
v 1.4 0 1.3
v 1.4 0 1
v 1.4 0 0.5
v 1.4 0 0.2
v 1.4 0 -0.3
v 1.4 0 -0.6
v 1.4 0 -1.1
v 1.4 0 -1.4
v 1.4 0 -1.9
v 1.4 0 -2
v 1.4 0.1 2
v 1.4 0.1 1.8
v 1.4 0.1 1.3
v 1.4 0.1 1
v 1.4 0.1 0.5
v 1.4 0.1 0.2
v 1.4 0.1 -0.3
v 1.4 0.1 -0.6
v 1.4 0.1 -1.1
v 1.4 0.1 -1.4
v 1.4 0.1 -1.9
v 1.4 0.1 -2
v -1.4 0 2
v -1.4 0.1 2
v -1.1 0.1 2
v -1.1 0.2 2
v -1 0.2 2
v -1 0.3 2
v -0.8 0.2 2
v -0.8 0.3 2
v -0.7 0.1 2
v -0.7 0.2 2
v 0.7 0.1 2
v 0.7 0.2 2
v 0.8 0.2 2
v 0.8 0.3 2
v 1 0.2 2
v 1 0.3 2
v 1.1 0.1 2
v 1.1 0.2 2
v 1.4 0 2
v 1.4 0.1 2
v -1.4 0 1.3
v -1.4 0.1 1.3
v -1.1 0.1 1.3
v -0.7 0.1 1.3
v 0.7 0.1 1.3
v 1.1 0.1 1.3
v 1.4 0 1.3
v 1.4 0.1 1.3
v -1.4 0 0.5
v -1.4 0.1 0.5
v -1.1 0.1 0.5
v -0.7 0.1 0.5
v 0.7 0.1 0.5
v 1.1 0.1 0.5
v 1.4 0 0.5
v 1.4 0.1 0.5
v -1.4 0 -0.3
v -1.4 0.1 -0.3
v -1.1 0.1 -0.3
v -0.7 0.1 -0.3
v 0.7 0.1 -0.3
v 1.1 0.1 -0.3
v 1.4 0 -0.3
v 1.4 0.1 -0.3
v -1.4 0 -1.1
v -1.4 0.1 -1.1
v -1.1 0.1 -1.1
v -0.7 0.1 -1.1
v 0.7 0.1 -1.1
v 1.1 0.1 -1.1
v 1.4 0 -1.1
v 1.4 0.1 -1.1
v -1.4 0 -1.9
v -1.4 0.1 -1.9
v -1.1 0.1 -1.9
v -0.7 0.1 -1.9
v 0.7 0.1 -1.9
v 1.1 0.1 -1.9
v 1.4 0 -1.9
v 1.4 0.1 -1.9
v -1.4 0 1.8
v -1.4 0.1 1.8
v -1.1 0.1 1.8
v -0.7 0.1 1.8
v 0.7 0.1 1.8
v 1.1 0.1 1.8
v 1.4 0 1.8
v 1.4 0.1 1.8
v -1.4 0 1
v -1.4 0.1 1
v -1.1 0.1 1
v -0.7 0.1 1
v 0.7 0.1 1
v 1.1 0.1 1
v 1.4 0 1
v 1.4 0.1 1
v -1.4 0 0.2
v -1.4 0.1 0.2
v -1.1 0.1 0.2
v -0.7 0.1 0.2
v 0.7 0.1 0.2
v 1.1 0.1 0.2
v 1.4 0 0.2
v 1.4 0.1 0.2
v -1.4 0 -0.6
v -1.4 0.1 -0.6
v -1.1 0.1 -0.6
v -0.7 0.1 -0.6
v 0.7 0.1 -0.6
v 1.1 0.1 -0.6
v 1.4 0 -0.6
v 1.4 0.1 -0.6
v -1.4 0 -1.4
v -1.4 0.1 -1.4
v -1.1 0.1 -1.4
v -0.7 0.1 -1.4
v 0.7 0.1 -1.4
v 1.1 0.1 -1.4
v 1.4 0 -1.4
v 1.4 0.1 -1.4
v -1.4 0 -2
v -1.4 0.1 -2
v -1.1 0.1 -2
v -1.1 0.2 -2
v -1 0.2 -2
v -1 0.3 -2
v -0.8 0.2 -2
v -0.8 0.3 -2
v -0.7 0.1 -2
v -0.7 0.2 -2
v 0.7 0.1 -2
v 0.7 0.2 -2
v 0.8 0.2 -2
v 0.8 0.3 -2
v 1 0.2 -2
v 1 0.3 -2
v 1.1 0.1 -2
v 1.1 0.2 -2
v 1.4 0 -2
v 1.4 0.1 -2
v -1.4 0 2
v 1.4 0 2
v -1.4 0 1.8
v 1.4 0 1.8
v -1.4 0 1.3
v 1.4 0 1.3
v -1.4 0 1
v 1.4 0 1
v -1.4 0 0.5
v 1.4 0 0.5
v -1.4 0 0.2
v 1.4 0 0.2
v -1.4 0 -0.3
v 1.4 0 -0.3
v -1.4 0 -0.6
v 1.4 0 -0.6
v -1.4 0 -1.1
v 1.4 0 -1.1
v -1.4 0 -1.4
v 1.4 0 -1.4
v -1.4 0 -1.9
v 1.4 0 -1.9
v -1.4 0 -2
v 1.4 0 -2
v -1.1 0.1 1.8
v -0.7 0.1 1.8
v 0.7 0.1 1.8
v 1.1 0.1 1.8
v -1.1 0.1 1.3
v -0.7 0.1 1.3
v 0.7 0.1 1.3
v 1.1 0.1 1.3
v -1.1 0.1 1
v -0.7 0.1 1
v 0.7 0.1 1
v 1.1 0.1 1
v -1.1 0.1 0.5
v -0.7 0.1 0.5
v 0.7 0.1 0.5
v 1.1 0.1 0.5
v -1.1 0.1 0.2
v -0.7 0.1 0.2
v 0.7 0.1 0.2
v 1.1 0.1 0.2
v -1.1 0.1 -0.3
v -0.7 0.1 -0.3
v 0.7 0.1 -0.3
v 1.1 0.1 -0.3
v -1.1 0.1 -0.6
v -0.7 0.1 -0.6
v 0.7 0.1 -0.6
v 1.1 0.1 -0.6
v -1.1 0.1 -1.1
v -0.7 0.1 -1.1
v 0.7 0.1 -1.1
v 1.1 0.1 -1.1
v -1.1 0.1 -1.4
v -0.7 0.1 -1.4
v 0.7 0.1 -1.4
v 1.1 0.1 -1.4
v -1.1 0.1 -1.9
v -0.7 0.1 -1.9
v 0.7 0.1 -1.9
v 1.1 0.1 -1.9
v -1.4 0.1 2
v -1.1 0.1 2
v -0.7 0.1 2
v 0.7 0.1 2
v 1.1 0.1 2
v 1.4 0.1 2
v -1.4 0.1 1.8
v -1.1 0.1 1.8
v -0.7 0.1 1.8
v 0.7 0.1 1.8
v 1.1 0.1 1.8
v 1.4 0.1 1.8
v -1.4 0.1 1.3
v -1.1 0.1 1.3
v -0.7 0.1 1.3
v 0.7 0.1 1.3
v 1.1 0.1 1.3
v 1.4 0.1 1.3
v -1.4 0.1 1
v -1.1 0.1 1
v -0.7 0.1 1
v 0.7 0.1 1
v 1.1 0.1 1
v 1.4 0.1 1
v -1.4 0.1 0.5
v -1.1 0.1 0.5
v -0.7 0.1 0.5
v 0.7 0.1 0.5
v 1.1 0.1 0.5
v 1.4 0.1 0.5
v -1.4 0.1 0.2
v -1.1 0.1 0.2
v -0.7 0.1 0.2
v 0.7 0.1 0.2
v 1.1 0.1 0.2
v 1.4 0.1 0.2
v -1.4 0.1 -0.3
v -1.1 0.1 -0.3
v -0.7 0.1 -0.3
v 0.7 0.1 -0.3
v 1.1 0.1 -0.3
v 1.4 0.1 -0.3
v -1.4 0.1 -0.6
v -1.1 0.1 -0.6
v -0.7 0.1 -0.6
v 0.7 0.1 -0.6
v 1.1 0.1 -0.6
v 1.4 0.1 -0.6
v -1.4 0.1 -1.1
v -1.1 0.1 -1.1
v -0.7 0.1 -1.1
v 0.7 0.1 -1.1
v 1.1 0.1 -1.1
v 1.4 0.1 -1.1
v -1.4 0.1 -1.4
v -1.1 0.1 -1.4
v -0.7 0.1 -1.4
v 0.7 0.1 -1.4
v 1.1 0.1 -1.4
v 1.4 0.1 -1.4
v -1.4 0.1 -1.9
v -1.1 0.1 -1.9
v -0.7 0.1 -1.9
v 0.7 0.1 -1.9
v 1.1 0.1 -1.9
v 1.4 0.1 -1.9
v -1.4 0.1 -2
v -1.1 0.1 -2
v -0.7 0.1 -2
v 0.7 0.1 -2
v 1.1 0.1 -2
v 1.4 0.1 -2
v -1.1 0.2 2
v -1 0.2 2
v -0.8 0.2 2
v -0.7 0.2 2
v 0.7 0.2 2
v 0.8 0.2 2
v 1 0.2 2
v 1.1 0.2 2
v -1.1 0.2 -2
v -1 0.2 -2
v -0.8 0.2 -2
v -0.7 0.2 -2
v 0.7 0.2 -2
v 0.8 0.2 -2
v 1 0.2 -2
v 1.1 0.2 -2
v -1 0.3 2
v -0.8 0.3 2
v 0.8 0.3 2
v 1 0.3 2
v -1 0.3 -2
v -0.8 0.3 -2
v 0.8 0.3 -2
v 1 0.3 -2

# faces
f 13/1/1 2/1/1 1/1/1
f 14/1/1 2/1/1 13/1/1
f 15/1/1 4/1/1 3/1/1
f 16/1/1 4/1/1 15/1/1
f 17/1/1 6/1/1 5/1/1
f 18/1/1 6/1/1 17/1/1
f 19/1/1 8/1/1 7/1/1
f 20/1/1 8/1/1 19/1/1
f 21/1/1 10/1/1 9/1/1
f 22/1/1 10/1/1 21/1/1
f 23/1/1 12/1/1 11/1/1
f 24/1/1 12/1/1 23/1/1
f 37/2/1 26/2/1 25/2/1
f 37/2/1 36/2/1 35/2/1
f 37/2/1 35/2/1 34/2/1
f 37/2/1 34/2/1 33/2/1
f 37/2/1 33/2/1 32/2/1
f 37/2/1 32/2/1 31/2/1
f 37/2/1 31/2/1 30/2/1
f 37/2/1 30/2/1 29/2/1
f 37/2/1 29/2/1 28/2/1
f 37/2/1 28/2/1 27/2/1
f 37/2/1 27/2/1 26/2/1
f 38/2/1 36/2/1 37/2/1
f 41/2/1 40/2/1 39/2/1
f 42/2/1 40/2/1 41/2/1
f 55/2/1 44/2/1 43/2/1
f 55/2/1 54/2/1 53/2/1
f 55/2/1 53/2/1 52/2/1
f 55/2/1 52/2/1 51/2/1
f 55/2/1 51/2/1 50/2/1
f 55/2/1 50/2/1 49/2/1
f 55/2/1 49/2/1 48/2/1
f 55/2/1 48/2/1 47/2/1
f 55/2/1 47/2/1 46/2/1
f 55/2/1 46/2/1 45/2/1
f 55/2/1 45/2/1 44/2/1
f 56/2/1 54/2/1 55/2/1
f 59/2/1 58/2/1 57/2/1
f 60/2/1 58/2/1 59/2/1
f 61/2/2 62/2/2 63/2/2
f 63/2/2 62/2/2 64/2/2
f 65/2/2 66/2/2 77/2/2
f 75/2/2 76/2/2 77/2/2
f 74/2/2 75/2/2 77/2/2
f 73/2/2 74/2/2 77/2/2
f 72/2/2 73/2/2 77/2/2
f 71/2/2 72/2/2 77/2/2
f 70/2/2 71/2/2 77/2/2
f 69/2/2 70/2/2 77/2/2
f 68/2/2 69/2/2 77/2/2
f 67/2/2 68/2/2 77/2/2
f 66/2/2 67/2/2 77/2/2
f 77/2/2 76/2/2 78/2/2
f 79/2/2 80/2/2 81/2/2
f 81/2/2 80/2/2 82/2/2
f 83/2/2 84/2/2 95/2/2
f 93/2/2 94/2/2 95/2/2
f 92/2/2 93/2/2 95/2/2
f 91/2/2 92/2/2 95/2/2
f 90/2/2 91/2/2 95/2/2
f 89/2/2 90/2/2 95/2/2
f 88/2/2 89/2/2 95/2/2
f 87/2/2 88/2/2 95/2/2
f 86/2/2 87/2/2 95/2/2
f 85/2/2 86/2/2 95/2/2
f 84/2/2 85/2/2 95/2/2
f 95/2/2 94/2/2 96/2/2
f 97/1/2 98/1/2 109/1/2
f 109/1/2 98/1/2 110/1/2
f 99/1/2 100/1/2 111/1/2
f 111/1/2 100/1/2 112/1/2
f 101/1/2 102/1/2 113/1/2
f 113/1/2 102/1/2 114/1/2
f 103/1/2 104/1/2 115/1/2
f 115/1/2 104/1/2 116/1/2
f 105/1/2 106/1/2 117/1/2
f 117/1/2 106/1/2 118/1/2
f 107/1/2 108/1/2 119/1/2
f 119/1/2 108/1/2 120/1/2
f 123/1/3 122/1/3 121/1/3
f 125/2/3 124/2/3 123/2/3
f 127/2/3 125/2/3 123/2/3
f 127/2/3 126/2/3 125/2/3
f 128/2/3 126/2/3 127/2/3
f 129/1/3 123/1/3 121/1/3
f 129/2/3 127/2/3 123/2/3
f 130/2/3 127/2/3 129/2/3
f 131/1/3 129/1/3 121/1/3
f 133/2/3 132/2/3 131/2/3
f 135/2/3 133/2/3 131/2/3
f 135/2/3 134/2/3 133/2/3
f 136/2/3 134/2/3 135/2/3
f 137/1/3 131/1/3 121/1/3
f 137/2/3 135/2/3 131/2/3
f 138/2/3 135/2/3 137/2/3
f 139/1/3 137/1/3 121/1/3
f 140/1/3 137/1/3 139/1/3
f 143/1/3 142/1/3 141/1/3
f 144/1/3 143/1/3 141/1/3
f 145/1/3 144/1/3 141/1/3
f 146/1/3 145/1/3 141/1/3
f 147/1/3 146/1/3 141/1/3
f 148/1/3 146/1/3 147/1/3
f 151/1/3 150/1/3 149/1/3
f 152/1/3 151/1/3 149/1/3
f 153/1/3 152/1/3 149/1/3
f 154/1/3 153/1/3 149/1/3
f 155/1/3 154/1/3 149/1/3
f 156/1/3 154/1/3 155/1/3
f 159/1/3 158/1/3 157/1/3
f 160/1/3 159/1/3 157/1/3
f 161/1/3 160/1/3 157/1/3
f 162/1/3 161/1/3 157/1/3
f 163/1/3 162/1/3 157/1/3
f 164/1/3 162/1/3 163/1/3
f 167/1/3 166/1/3 165/1/3
f 168/1/3 167/1/3 165/1/3
f 169/1/3 168/1/3 165/1/3
f 170/1/3 169/1/3 165/1/3
f 171/1/3 170/1/3 165/1/3
f 172/1/3 170/1/3 171/1/3
f 175/1/3 174/1/3 173/1/3
f 176/1/3 175/1/3 173/1/3
f 177/1/3 176/1/3 173/1/3
f 178/1/3 177/1/3 173/1/3
f 179/1/3 178/1/3 173/1/3
f 180/1/3 178/1/3 179/1/3
f 181/1/4 182/1/4 183/1/4
f 181/1/4 183/1/4 184/1/4
f 181/1/4 184/1/4 185/1/4
f 181/1/4 185/1/4 186/1/4
f 181/1/4 186/1/4 187/1/4
f 187/1/4 186/1/4 188/1/4
f 189/1/4 190/1/4 191/1/4
f 189/1/4 191/1/4 192/1/4
f 189/1/4 192/1/4 193/1/4
f 189/1/4 193/1/4 194/1/4
f 189/1/4 194/1/4 195/1/4
f 195/1/4 194/1/4 196/1/4
f 197/1/4 198/1/4 199/1/4
f 197/1/4 199/1/4 200/1/4
f 197/1/4 200/1/4 201/1/4
f 197/1/4 201/1/4 202/1/4
f 197/1/4 202/1/4 203/1/4
f 203/1/4 202/1/4 204/1/4
f 205/1/4 206/1/4 207/1/4
f 205/1/4 207/1/4 208/1/4
f 205/1/4 208/1/4 209/1/4
f 205/1/4 209/1/4 210/1/4
f 205/1/4 210/1/4 211/1/4
f 211/1/4 210/1/4 212/1/4
f 213/1/4 214/1/4 215/1/4
f 213/1/4 215/1/4 216/1/4
f 213/1/4 216/1/4 217/1/4
f 213/1/4 217/1/4 218/1/4
f 213/1/4 218/1/4 219/1/4
f 219/1/4 218/1/4 220/1/4
f 221/1/4 222/1/4 223/1/4
f 223/2/4 224/2/4 225/2/4
f 223/2/4 225/2/4 227/2/4
f 225/2/4 226/2/4 227/2/4
f 227/2/4 226/2/4 228/2/4
f 221/1/4 223/1/4 229/1/4
f 223/2/4 227/2/4 229/2/4
f 229/2/4 227/2/4 230/2/4
f 221/1/4 229/1/4 231/1/4
f 231/2/4 232/2/4 233/2/4
f 231/2/4 233/2/4 235/2/4
f 233/2/4 234/2/4 235/2/4
f 235/2/4 234/2/4 236/2/4
f 221/1/4 231/1/4 237/1/4
f 231/2/4 235/2/4 237/2/4
f 237/2/4 235/2/4 238/2/4
f 221/1/4 237/1/4 239/1/4
f 239/1/4 237/1/4 240/1/4
f 243/1/5 242/1/5 241/1/5
f 244/1/5 242/1/5 243/1/5
f 247/1/5 246/1/5 245/1/5
f 248/1/5 246/1/5 247/1/5
f 251/1/5 250/1/5 249/1/5
f 252/1/5 250/1/5 251/1/5
f 255/1/5 254/1/5 253/1/5
f 256/1/5 254/1/5 255/1/5
f 259/1/5 258/1/5 257/1/5
f 260/1/5 258/1/5 259/1/5
f 263/1/5 262/1/5 261/1/5
f 264/1/5 262/1/5 263/1/5
f 269/2/5 266/2/5 265/2/5
f 270/2/5 266/2/5 269/2/5
f 271/2/5 268/2/5 267/2/5
f 272/2/5 268/2/5 271/2/5
f 277/2/5 274/2/5 273/2/5
f 278/2/5 274/2/5 277/2/5
f 279/2/5 276/2/5 275/2/5
f 280/2/5 276/2/5 279/2/5
f 285/2/5 282/2/5 281/2/5
f 286/2/5 282/2/5 285/2/5
f 287/2/5 284/2/5 283/2/5
f 288/2/5 284/2/5 287/2/5
f 293/2/5 290/2/5 289/2/5
f 294/2/5 290/2/5 293/2/5
f 295/2/5 292/2/5 291/2/5
f 296/2/5 292/2/5 295/2/5
f 301/2/5 298/2/5 297/2/5
f 302/2/5 298/2/5 301/2/5
f 303/2/5 300/2/5 299/2/5
f 304/2/5 300/2/5 303/2/5
f 305/1/6 306/1/6 311/1/6
f 311/1/6 306/1/6 312/1/6
f 307/1/6 308/1/6 313/1/6
f 313/1/6 308/1/6 314/1/6
f 309/1/6 310/1/6 315/1/6
f 315/1/6 310/1/6 316/1/6
f 317/1/6 318/1/6 323/1/6
f 323/1/6 318/1/6 324/1/6
f 319/1/6 320/1/6 325/1/6
f 325/1/6 320/1/6 326/1/6
f 321/1/6 322/1/6 327/1/6
f 327/1/6 322/1/6 328/1/6
f 329/1/6 330/1/6 335/1/6
f 335/1/6 330/1/6 336/1/6
f 331/1/6 332/1/6 337/1/6
f 337/1/6 332/1/6 338/1/6
f 333/1/6 334/1/6 339/1/6
f 339/1/6 334/1/6 340/1/6
f 341/1/6 342/1/6 347/1/6
f 347/1/6 342/1/6 348/1/6
f 343/1/6 344/1/6 349/1/6
f 349/1/6 344/1/6 350/1/6
f 345/1/6 346/1/6 351/1/6
f 351/1/6 346/1/6 352/1/6
f 353/1/6 354/1/6 359/1/6
f 359/1/6 354/1/6 360/1/6
f 355/1/6 356/1/6 361/1/6
f 361/1/6 356/1/6 362/1/6
f 357/1/6 358/1/6 363/1/6
f 363/1/6 358/1/6 364/1/6
f 365/1/6 366/1/6 371/1/6
f 371/1/6 366/1/6 372/1/6
f 367/1/6 368/1/6 373/1/6
f 373/1/6 368/1/6 374/1/6
f 369/1/6 370/1/6 375/1/6
f 375/1/6 370/1/6 376/1/6
f 377/2/6 378/2/6 385/2/6
f 385/2/6 378/2/6 386/2/6
f 379/2/6 380/2/6 387/2/6
f 387/2/6 380/2/6 388/2/6
f 381/2/6 382/2/6 389/2/6
f 389/2/6 382/2/6 390/2/6
f 383/2/6 384/2/6 391/2/6
f 391/2/6 384/2/6 392/2/6
f 393/2/6 394/2/6 397/2/6
f 397/2/6 394/2/6 398/2/6
f 395/2/6 396/2/6 399/2/6
f 399/2/6 396/2/6 400/2/6
